<svg width="40" height="40" viewBox="0 0 40 40" fill="none" xmlns="http://www.w3.org/2000/svg">
<path d="M20 5C18.8397 5 17.7269 5.46094 16.9064 6.28141C16.0859 7.10188 15.625 8.21468 15.625 9.375C15.625 10.5353 16.0859 11.6481 16.9064 12.4686C17.7269 13.2891 18.8397 13.75 20 13.75C21.1603 13.75 22.2731 13.2891 23.0936 12.4686C23.9141 11.6481 24.375 10.5353 24.375 9.375C24.375 8.21468 23.9141 7.10188 23.0936 6.28141C22.2731 5.46094 21.1603 5 20 5ZM14.375 9.375C14.375 7.88316 14.9676 6.45242 16.0225 5.39752C17.0774 4.34263 18.5082 3.75 20 3.75C21.4918 3.75 22.9226 4.34263 23.9775 5.39752C25.0324 6.45242 25.625 7.88316 25.625 9.375C25.625 10.8668 25.0324 12.2976 23.9775 13.3525C22.9226 14.4074 21.4918 15 20 15C18.5082 15 17.0774 14.4074 16.0225 13.3525C14.9676 12.2976 14.375 10.8668 14.375 9.375ZM7.5 8.75C6.50544 8.75 5.55161 9.14509 4.84835 9.84835C4.14509 10.5516 3.75 11.5054 3.75 12.5C3.75 13.4946 4.14509 14.4484 4.84835 15.1516C5.55161 15.8549 6.50544 16.25 7.5 16.25C8.49456 16.25 9.44839 15.8549 10.1517 15.1516C10.8549 14.4484 11.25 13.4946 11.25 12.5C11.25 11.5054 10.8549 10.5516 10.1517 9.84835C9.44839 9.14509 8.49456 8.75 7.5 8.75ZM2.5 12.5C2.5 11.1739 3.02678 9.90215 3.96447 8.96447C4.90215 8.02678 6.17392 7.5 7.5 7.5C8.82608 7.5 10.0979 8.02678 11.0355 8.96447C11.9732 9.90215 12.5 11.1739 12.5 12.5C12.5 13.8261 11.9732 15.0979 11.0355 16.0355C10.0979 16.9732 8.82608 17.5 7.5 17.5C6.17392 17.5 4.90215 16.9732 3.96447 16.0355C3.02678 15.0979 2.5 13.8261 2.5 12.5ZM28.75 12.5C28.75 11.5054 29.1451 10.5516 29.8483 9.84835C30.5516 9.14509 31.5054 8.75 32.5 8.75C33.4946 8.75 34.4484 9.14509 35.1516 9.84835C35.8549 10.5516 36.25 11.5054 36.25 12.5C36.25 13.4946 35.8549 14.4484 35.1516 15.1516C34.4484 15.8549 33.4946 16.25 32.5 16.25C31.5054 16.25 30.5516 15.8549 29.8483 15.1516C29.1451 14.4484 28.75 13.4946 28.75 12.5ZM32.5 7.5C31.1739 7.5 29.9021 8.02678 28.9645 8.96447C28.0268 9.90215 27.5 11.1739 27.5 12.5C27.5 13.8261 28.0268 15.0979 28.9645 16.0355C29.9021 16.9732 31.1739 17.5 32.5 17.5C33.8261 17.5 35.0979 16.9732 36.0355 16.0355C36.9732 15.0979 37.5 13.8261 37.5 12.5C37.5 11.1739 36.9732 9.90215 36.0355 8.96447C35.0979 8.02678 33.8261 7.5 32.5 7.5ZM12.5 20.625C12.5 19.7962 12.8292 19.0013 13.4153 18.4153C14.0013 17.8292 14.7962 17.5 15.625 17.5H24.375C25.2038 17.5 25.9987 17.8292 26.5847 18.4153C27.1708 19.0013 27.5 19.7962 27.5 20.625V27.5C27.5 29.4891 26.7098 31.3968 25.3033 32.8033C23.8968 34.2098 21.9891 35 20 35C18.0109 35 16.1032 34.2098 14.6967 32.8033C13.2902 31.3968 12.5 29.4891 12.5 27.5V20.625ZM15.625 18.75C15.1277 18.75 14.6508 18.9475 14.2992 19.2992C13.9475 19.6508 13.75 20.1277 13.75 20.625V27.5C13.75 29.1576 14.4085 30.7473 15.5806 31.9194C16.7527 33.0915 18.3424 33.75 20 33.75C21.6576 33.75 23.2473 33.0915 24.4194 31.9194C25.5915 30.7473 26.25 29.1576 26.25 27.5V20.625C26.25 20.1277 26.0525 19.6508 25.7008 19.2992C25.3492 18.9475 24.8723 18.75 24.375 18.75H15.625ZM11.3625 19.6337C11.2873 19.9588 11.2496 20.2914 11.25 20.625V20.9587L5.14 22.5962C4.66013 22.7251 4.25104 23.0393 4.0026 23.4696C3.75416 23.8999 3.68669 24.4112 3.815 24.8912L4.9475 29.1175C5.1785 29.9801 5.59168 30.7832 6.1592 31.4727C6.72673 32.1622 7.43542 32.7221 8.23754 33.1146C9.03967 33.5071 9.91659 33.7232 10.8093 33.7483C11.7019 33.7734 12.5896 33.6069 13.4125 33.26C13.7067 33.5958 14.0246 33.9079 14.3663 34.1962C13.3709 34.6993 12.2758 34.974 11.1609 35.0004C10.0459 35.0267 8.93915 34.8041 7.92109 34.3487C6.90304 33.8934 5.99936 33.2167 5.27586 32.3679C4.55235 31.5192 4.02724 30.5198 3.73875 29.4425L2.6075 25.215C2.50126 24.8186 2.47416 24.4051 2.52773 23.9982C2.5813 23.5913 2.7145 23.1989 2.91972 22.8435C3.12495 22.4881 3.39817 22.1766 3.72379 21.9267C4.04941 21.6769 4.42106 21.4937 4.8175 21.3875L11.3625 19.6337ZM25.6338 34.1962C26.0863 34.4237 26.5671 34.6067 27.0762 34.745C28.9976 35.2596 31.0446 34.99 32.7672 33.9953C34.4897 33.0007 35.7465 31.3625 36.2612 29.4412L37.3938 25.2162C37.6083 24.4158 37.4962 23.5629 37.082 22.8451C36.6678 22.1273 35.9854 21.6035 35.185 21.3887L28.6375 19.6337C28.7125 19.9529 28.75 20.2833 28.75 20.625V20.9587L34.8613 22.5962C35.3411 22.7251 35.7502 23.0393 35.9986 23.4696C36.2471 23.8999 36.3146 24.4112 36.1862 24.8912L35.055 29.1175C34.8241 29.9804 34.4108 30.7838 33.8431 31.4736C33.2754 32.1633 32.5665 32.7233 31.764 33.1159C30.9616 33.5084 30.0844 33.7244 29.1914 33.7493C28.2984 33.7742 27.4105 33.6073 26.5875 33.26C26.2933 33.595 25.9754 33.9079 25.6338 34.1962Z" fill="white"/>
</svg>
