<svg width="48" height="48" viewBox="0 0 48 48" fill="none" xmlns="http://www.w3.org/2000/svg">
<path d="M44 6H4C2.89543 6 2 6.89543 2 8V34C2 35.1046 2.89543 36 4 36H44C45.1046 36 46 35.1046 46 34V8C46 6.89543 45.1046 6 44 6Z" fill="#F8F9F9"/>
<path d="M46 11H2V17H46V11Z" fill="#BEC6C6"/>
<path d="M44 5H4C3.20435 5 2.44129 5.31607 1.87868 5.87868C1.31607 6.44129 1 7.20435 1 8V34C1 34.7956 1.31607 35.5587 1.87868 36.1213C2.44129 36.6839 3.20435 37 4 37H44C44.7957 37 45.5587 36.6839 46.1213 36.1213C46.6839 35.5587 47 34.7956 47 34V8C47 7.20435 46.6839 6.44129 46.1213 5.87868C45.5587 5.31607 44.7957 5 44 5ZM4 7H44C44.2652 7 44.5196 7.10536 44.7071 7.29289C44.8946 7.48043 45 7.73478 45 8V10H3V8C3 7.73478 3.10536 7.48043 3.29289 7.29289C3.48043 7.10536 3.73478 7 4 7ZM45 16H3V12H45V16ZM44 35H4C3.73478 35 3.48043 34.8946 3.29289 34.7071C3.10536 34.5196 3 34.2652 3 34V18H45V34C45 34.2652 44.8946 34.5196 44.7071 34.7071C44.5196 34.8946 44.2652 35 44 35Z" fill="#414141"/>
<path d="M41.58 28.91L37.43 33.05C37.1981 33.2823 36.9127 33.4541 36.5987 33.55C36.2848 33.6459 35.9521 33.6631 35.63 33.6L33.14 33.1L30.31 35.93L28.19 35.22V38.05L26.07 37.34V40.17L24 39.46V42.29L23.29 43L19 41.59V38.76L28.9 28.86L28.4 26.37C28.3369 26.0479 28.3541 25.7152 28.45 25.4013C28.5459 25.0873 28.7177 24.8019 28.95 24.57L33.09 20.42C33.3239 20.1878 33.6115 20.0171 33.9272 19.9229C34.243 19.8287 34.5772 19.8139 34.9 19.88C36.8235 20.2872 38.5575 21.3212 39.83 22.82C41.0043 23.9855 41.802 25.4764 42.12 27.1C42.1861 27.4228 42.1713 27.757 42.0771 28.0728C41.9829 28.3885 41.8122 28.6761 41.58 28.91Z" fill="#06C4D9"/>
<path d="M37 27C38.1046 27 39 26.1046 39 25C39 23.8954 38.1046 23 37 23C35.8954 23 35 23.8954 35 25C35 26.1046 35.8954 27 37 27Z" fill="#F8F9F9"/>
<path d="M24 22H6C5.73478 22 5.48043 21.8946 5.29289 21.7071C5.10536 21.5196 5 21.2652 5 21C5 20.7348 5.10536 20.4804 5.29289 20.2929C5.48043 20.1054 5.73478 20 6 20H24C24.2652 20 24.5196 20.1054 24.7071 20.2929C24.8946 20.4804 25 20.7348 25 21C25 21.2652 24.8946 21.5196 24.7071 21.7071C24.5196 21.8946 24.2652 22 24 22Z" fill="#BEC6C6"/>
<path d="M12 28H6C5.73478 28 5.48043 27.8946 5.29289 27.7071C5.10536 27.5196 5 27.2652 5 27C5 26.7348 5.10536 26.4804 5.29289 26.2929C5.48043 26.1054 5.73478 26 6 26H12C12.2652 26 12.5196 26.1054 12.7071 26.2929C12.8946 26.4804 13 26.7348 13 27C13 27.2652 12.8946 27.5196 12.7071 27.7071C12.5196 27.8946 12.2652 28 12 28Z" fill="#BEC6C6"/>
<path d="M20 32H6C5.73478 32 5.48043 31.8946 5.29289 31.7071C5.10536 31.5196 5 31.2652 5 31C5 30.7348 5.10536 30.4804 5.29289 30.2929C5.48043 30.1054 5.73478 30 6 30H20C20.2652 30 20.5196 30.1054 20.7071 30.2929C20.8946 30.4804 21 30.7348 21 31C21 31.2652 20.8946 31.5196 20.7071 31.7071C20.5196 31.8946 20.2652 32 20 32Z" fill="#BEC6C6"/>
</svg>
