<svg width="143" height="145" viewBox="0 0 143 145" fill="none" xmlns="http://www.w3.org/2000/svg">
<path opacity="0.25" d="M98.8394 42.3744C84.2509 31.1464 62.2669 20.7966 48.9916 18.8981C29.6547 16.0401 14.5205 18.8981 16.9654 51.867C19.8346 90.3477 30.3416 124.174 48.0015 124.011C65.6616 123.847 175.804 101.637 98.8394 42.3744Z" fill="url(#paint0_linear_202_90)"/>
<path opacity="0.25" d="M98.8394 42.3744C84.2509 31.1464 62.2669 20.7966 48.9916 18.8981C29.6547 16.0401 14.5205 18.8981 16.9654 51.867C19.8346 90.3477 30.3416 124.174 48.0015 124.011C65.6616 123.847 175.804 101.637 98.8394 42.3744Z" fill="url(#paint1_linear_202_90)"/>
<path opacity="0.5" d="M66.2474 22.1031C57.5994 28.6764 26.5834 54.5822 18.5616 77.7726C10.5399 100.963 34.5244 125.664 53.6793 125.154C72.8345 124.643 90.757 105.822 90.757 105.822C173.682 39.1286 86.9383 6.36383 66.2474 22.1031Z" fill="url(#paint2_linear_202_90)"/>
<path opacity="0.5" d="M66.2474 22.1031C57.5994 28.6764 26.5834 54.5822 18.5616 77.7726C10.5399 100.963 34.5244 125.664 53.6793 125.154C72.8345 124.643 90.757 105.822 90.757 105.822C173.682 39.1286 86.9383 6.36383 66.2474 22.1031Z" fill="url(#paint3_linear_202_90)"/>
<path d="M102.678 59.483H99.0526V82.9555L83.1705 67.8675L80.1279 70.758L95.7295 85.6H42.2137L57.319 70.758L54.2116 67.9085L38.6316 83.222V47.716L65.4542 73.0745C66.2628 73.8381 67.3567 74.2668 68.4968 74.2668C69.637 74.2668 70.7309 73.8381 71.5395 73.0745L85.9111 59.483H79.8042L68.4968 70.1635L41.4584 44.6H73.2874L75.769 40.5H38.6316C37.487 40.5 36.3892 40.932 35.5799 41.7009C34.7705 42.4698 34.3158 43.5126 34.3158 44.6V85.6C34.3158 86.6874 34.7705 87.7302 35.5799 88.4991C36.3892 89.268 37.487 89.7 38.6316 89.7H99.0526C100.197 89.7 101.295 89.268 102.104 88.4991C102.914 87.7302 103.368 86.6874 103.368 85.6V59.442L102.678 59.483Z" fill="white"/>
<path d="M70.6404 55.875L90.4211 23.4166L110.202 55.875H70.6404ZM76.8443 52.4583H103.998L90.4211 30.25L76.8443 52.4583ZM90.4211 50.75C90.9306 50.75 91.358 50.586 91.7032 50.258C92.0485 49.93 92.2205 49.5245 92.2193 49.0416C92.2181 48.5587 92.0455 48.1533 91.7014 47.8253C91.3574 47.4973 90.9306 47.3333 90.4211 47.3333C89.9116 47.3333 89.4848 47.4973 89.1407 47.8253C88.7967 48.1533 88.624 48.5587 88.6228 49.0416C88.6216 49.5245 88.7943 49.9305 89.1407 50.2597C89.4872 50.5888 89.914 50.7522 90.4211 50.75ZM88.6228 45.625H92.2193V37.0833H88.6228V45.625Z" fill="white"/>
<path d="M102.678 59.483H99.0526V82.9555L83.1705 67.8675L80.1279 70.758L95.7295 85.6H42.2137L57.319 70.758L54.2116 67.9085L38.6316 83.222V47.716L65.4542 73.0745C66.2628 73.8381 67.3567 74.2668 68.4968 74.2668C69.637 74.2668 70.7309 73.8381 71.5395 73.0745L85.9111 59.483H79.8042L68.4968 70.1635L41.4584 44.6H73.2874L75.769 40.5H38.6316C37.487 40.5 36.3892 40.932 35.5799 41.7009C34.7705 42.4698 34.3158 43.5126 34.3158 44.6V85.6C34.3158 86.6874 34.7705 87.7302 35.5799 88.4991C36.3892 89.268 37.487 89.7 38.6316 89.7H99.0526C100.197 89.7 101.295 89.268 102.104 88.4991C102.914 87.7302 103.368 86.6874 103.368 85.6V59.442L102.678 59.483Z" fill="white"/>
<path d="M70.6404 55.875L90.4211 23.4166L110.202 55.875H70.6404ZM76.8443 52.4583H103.998L90.4211 30.25L76.8443 52.4583ZM90.4211 50.75C90.9306 50.75 91.358 50.586 91.7032 50.258C92.0485 49.93 92.2205 49.5245 92.2193 49.0416C92.2181 48.5587 92.0455 48.1533 91.7014 47.8253C91.3574 47.4973 90.9306 47.3333 90.4211 47.3333C89.9116 47.3333 89.4848 47.4973 89.1407 47.8253C88.7967 48.1533 88.624 48.5587 88.6228 49.0416C88.6216 49.5245 88.7943 49.9305 89.1407 50.2597C89.4872 50.5888 89.914 50.7522 90.4211 50.75ZM88.6228 45.625H92.2193V37.0833H88.6228V45.625Z" fill="white"/>
<defs>
<linearGradient id="paint0_linear_202_90" x1="117.594" y1="22.7788" x2="-1.67058" y2="117.425" gradientUnits="userSpaceOnUse">
<stop offset="0.337" stop-color="#006FFF"/>
<stop offset="1" stop-color="#EA6060" stop-opacity="0"/>
</linearGradient>
<linearGradient id="paint1_linear_202_90" x1="117.594" y1="22.7788" x2="-1.67058" y2="117.425" gradientUnits="userSpaceOnUse">
<stop offset="0.337" stop-color="#006FFF"/>
<stop offset="1" stop-color="#EA6060" stop-opacity="0"/>
</linearGradient>
<linearGradient id="paint2_linear_202_90" x1="71.4788" y1="18.208" x2="71.4788" y2="125.162" gradientUnits="userSpaceOnUse">
<stop stop-color="#FF0000"/>
<stop offset="1" stop-color="#C8FFFF" stop-opacity="0"/>
</linearGradient>
<linearGradient id="paint3_linear_202_90" x1="71.4788" y1="18.208" x2="71.4788" y2="125.162" gradientUnits="userSpaceOnUse">
<stop stop-color="#FF0000"/>
<stop offset="1" stop-color="#C8FFFF" stop-opacity="0"/>
</linearGradient>
</defs>
</svg>
