<svg width="40" height="42" viewBox="0 0 40 42" fill="none" xmlns="http://www.w3.org/2000/svg">
<path d="M25.7231 26.9973C25.3861 26.0522 24.6416 25.2174 23.6068 24.6218C22.572 24.0263 21.3039 23.7033 19.9995 23.7033C18.6951 23.7033 17.4269 24.0263 16.3921 24.6218C15.3573 25.2174 14.6129 26.0522 14.2759 26.9973" stroke="white" stroke-linecap="round"/>
<path d="M19.9995 20.7404C21.6359 20.7404 22.9624 19.4139 22.9624 17.7775C22.9624 16.1411 21.6359 14.8146 19.9995 14.8146C18.3631 14.8146 17.0366 16.1411 17.0366 17.7775C17.0366 19.4139 18.3631 20.7404 19.9995 20.7404Z" stroke="white" stroke-linecap="round"/>
<path d="M30.4787 22.3304L34.1823 18.6267C34.2518 18.5572 34.3462 18.5181 34.4445 18.5181C34.5429 18.5181 34.6372 18.5572 34.7067 18.6267C34.7763 18.6963 34.8153 18.7906 34.8153 18.8889C34.8153 18.9873 34.7763 19.0816 34.7067 19.1511L31.6349 22.2222H39.6296C39.7278 22.2222 39.8221 22.2612 39.8915 22.3307C39.961 22.4001 40 22.4943 40 22.5926C40 22.6908 39.961 22.785 39.8915 22.8545C39.8221 22.9239 39.7278 22.9629 39.6296 22.9629H31.6349L34.7067 26.034C34.7763 26.1035 34.8153 26.1979 34.8153 26.2962C34.8153 26.3946 34.7763 26.4889 34.7067 26.5584C34.6372 26.628 34.5429 26.6671 34.4445 26.6671C34.3462 26.6671 34.2518 26.628 34.1823 26.5584L30.4787 22.8548C30.4442 22.8204 30.4168 22.7795 30.3981 22.7345C30.3795 22.6895 30.3698 22.6413 30.3698 22.5926C30.3698 22.5439 30.3795 22.4956 30.3981 22.4506C30.4168 22.4056 30.4442 22.3648 30.4787 22.3304Z" fill="white"/>
<path d="M19.3674 9.52132L15.6637 5.81767C15.5942 5.74813 15.5551 5.65381 15.5551 5.55545C15.5551 5.4571 15.5942 5.36278 15.6637 5.29324C15.7333 5.22369 15.8276 5.18462 15.9259 5.18462C16.0243 5.18462 16.1186 5.22369 16.1882 5.29324L19.2592 8.36504V0.370351C19.2592 0.272124 19.2982 0.17792 19.3677 0.108463C19.4372 0.0390062 19.5314 -1.43051e-05 19.6296 -1.43051e-05C19.7278 -1.43051e-05 19.822 0.0390062 19.8915 0.108463C19.9609 0.17792 20 0.272124 20 0.370351V8.36504L23.071 5.29324C23.1406 5.22369 23.2349 5.18462 23.3332 5.18462C23.4316 5.18462 23.5259 5.22369 23.5955 5.29324C23.665 5.36278 23.7041 5.4571 23.7041 5.55545C23.7041 5.65381 23.665 5.74813 23.5955 5.81767L19.8918 9.52132C19.8574 9.55581 19.8165 9.58317 19.7715 9.60185C19.7265 9.62052 19.6783 9.63013 19.6296 9.63013C19.5809 9.63013 19.5326 9.62052 19.4876 9.60185C19.4426 9.58317 19.4018 9.55581 19.3674 9.52132Z" fill="white"/>
<path d="M9.52132 22.8548L5.81767 26.5584C5.74813 26.628 5.65381 26.667 5.55545 26.667C5.4571 26.667 5.36278 26.628 5.29324 26.5584C5.22369 26.4889 5.18462 26.3945 5.18462 26.2962C5.18462 26.1978 5.22369 26.1035 5.29324 26.034L8.36504 22.9629H0.370349C0.272122 22.9629 0.177918 22.9239 0.108461 22.8544C0.0390043 22.785 -1.52588e-05 22.6908 -1.52588e-05 22.5925C-1.52588e-05 22.4943 0.0390043 22.4001 0.108461 22.3307C0.177918 22.2612 0.272122 22.2222 0.370349 22.2222H8.36504L5.29324 19.1511C5.22369 19.0816 5.18462 18.9872 5.18462 18.8889C5.18462 18.7905 5.22369 18.6962 5.29324 18.6267C5.36278 18.5571 5.4571 18.5181 5.55545 18.5181C5.65381 18.5181 5.74813 18.5571 5.81767 18.6267L9.52132 22.3303C9.55581 22.3647 9.58317 22.4056 9.60185 22.4506C9.62052 22.4956 9.63013 22.5438 9.63013 22.5925C9.63013 22.6413 9.62052 22.6895 9.60185 22.7345C9.58317 22.7795 9.55581 22.8204 9.52132 22.8548Z" fill="white"/>
<path d="M19.8918 31.9602L23.5955 35.6638C23.665 35.7334 23.7041 35.8277 23.7041 35.9261C23.7041 36.0244 23.665 36.1187 23.5955 36.1883C23.5259 36.2578 23.4316 36.2969 23.3333 36.2969C23.2349 36.2969 23.1406 36.2578 23.0711 36.1883L20 33.1165V41.1112C20 41.2094 19.961 41.3036 19.8915 41.373C19.8221 41.4425 19.7279 41.4815 19.6296 41.4815C19.5314 41.4815 19.4372 41.4425 19.3677 41.373C19.2983 41.3036 19.2593 41.2094 19.2593 41.1112V33.1165L16.1882 36.1883C16.1187 36.2578 16.0243 36.2969 15.926 36.2969C15.8276 36.2969 15.7333 36.2578 15.6638 36.1883C15.5942 36.1187 15.5551 36.0244 15.5551 35.9261C15.5551 35.8277 15.5942 35.7334 15.6638 35.6638L19.3674 31.9602C19.4018 31.9257 19.4427 31.8983 19.4877 31.8797C19.5327 31.861 19.5809 31.8514 19.6296 31.8514C19.6783 31.8514 19.7266 31.861 19.7716 31.8797C19.8166 31.8983 19.8574 31.9257 19.8918 31.9602Z" fill="white"/>
</svg>
