<svg width="40" height="40" viewBox="0 0 40 40" fill="none" xmlns="http://www.w3.org/2000/svg">
<path d="M19.1667 5.18334L31.6667 11.05V19.4C31.6667 27.4167 26.3 34.8333 19.1667 36.7333C12.0333 34.8333 6.66667 27.4167 6.66667 19.4V11.05M19.1667 38.45C27.3333 36.4 33.3333 28.2333 33.3333 19.4V10L19.1667 3.33334L5 10V19.4C5 28.2333 11 36.4 19.1667 38.45Z" fill="white"/>
<path d="M27.3126 28.3607C26.8323 27.0139 25.7714 25.8242 24.2968 24.9756C22.8222 24.1269 21.0151 23.6667 19.1563 23.6667C17.2974 23.6667 15.4903 24.1269 14.0157 24.9756C12.5411 25.8242 11.4803 27.0139 11 28.3607" stroke="white" stroke-linecap="round"/>
<path d="M19.1563 19.4444C21.4882 19.4444 23.3785 17.5541 23.3785 15.2222C23.3785 12.8904 21.4882 11 19.1563 11C16.8244 11 14.9341 12.8904 14.9341 15.2222C14.9341 17.5541 16.8244 19.4444 19.1563 19.4444Z" stroke="white" stroke-linecap="round"/>
</svg>
