<svg width="48" height="48" viewBox="0 0 48 48" fill="none" xmlns="http://www.w3.org/2000/svg">
<path d="M23 44C34.598 44 44 34.598 44 23C44 11.402 34.598 2 23 2C11.402 2 2 11.402 2 23C2 34.598 11.402 44 23 44Z" fill="#F8F9F9"/>
<path d="M44 22H35C34.9524 18.7204 34.4682 15.4617 33.56 12.31C35.34 11.3426 36.9759 10.1309 38.42 8.71C38.6083 8.52169 38.7141 8.2663 38.7141 8C38.7141 7.7337 38.6083 7.4783 38.42 7.29C38.2317 7.10169 37.9763 6.9959 37.71 6.9959C37.4437 6.9959 37.1883 7.10169 37 7.29C35.7702 8.49153 34.3885 9.52699 32.89 10.37C28.17 -2.14 17.84 -2.12 13.13 10.37C11.6245 9.52845 10.236 8.49294 9 7.29C8.80755 7.12743 8.56084 7.04349 8.30918 7.05496C8.05752 7.06643 7.81946 7.17246 7.64259 7.35185C7.46573 7.53124 7.36309 7.77078 7.35519 8.02258C7.34729 8.27437 7.43472 8.51987 7.6 8.71C9.04409 10.1309 10.68 11.3426 12.46 12.31C11.5451 15.4608 11.0541 18.7195 11 22H2C1.73478 22 1.48043 22.1054 1.29289 22.2929C1.10536 22.4804 1 22.7348 1 23C1 23.2652 1.10536 23.5196 1.29289 23.7071C1.48043 23.8946 1.73478 24 2 24H11C11.0476 27.2796 11.5318 30.5383 12.44 33.69C10.66 34.6574 9.02409 35.8691 7.58 37.29C7.3917 37.4783 7.28591 37.7337 7.28591 38C7.28591 38.2663 7.3917 38.5217 7.58 38.71C7.7683 38.8983 8.0237 39.0041 8.29 39.0041C8.5563 39.0041 8.8117 38.8983 9 38.71C10.2298 37.5085 11.6115 36.473 13.11 35.63C17.83 48.14 28.16 48.12 32.87 35.63C36.67 37.79 36.74 39 37.69 39C37.8878 38.9992 38.0809 38.9397 38.2448 38.8291C38.4088 38.7186 38.5363 38.5619 38.6113 38.3788C38.6862 38.1958 38.7052 37.9947 38.6658 37.8009C38.6264 37.607 38.5304 37.4293 38.39 37.29C36.9459 35.8691 35.31 34.6574 33.53 33.69C34.4483 30.5396 34.9427 27.281 35 24H44C44.2652 24 44.5196 23.8946 44.7071 23.7071C44.8946 23.5196 45 23.2652 45 23C45 22.7348 44.8946 22.4804 44.7071 22.2929C44.5196 22.1054 44.2652 22 44 22ZM33 22H24V15C26.6411 14.8902 29.2401 14.3006 31.67 13.26C32.4784 16.106 32.9252 19.0424 33 22ZM31 11.3C28.7897 12.2884 26.4174 12.8645 24 13V3.1C26.85 3.7 29.39 6.83 31 11.3ZM22 3.1V13C19.5857 12.8804 17.2135 12.3212 15 11.35C16.61 6.83 19.15 3.7 22 3.1ZM14.33 13.21C16.7566 14.2678 19.3558 14.8744 22 15V22H13C13.0706 19.0256 13.5175 16.0721 14.33 13.21ZM13 24H22V31.05C19.3589 31.1598 16.7599 31.7494 14.33 32.79C13.5175 29.9279 13.0706 26.9744 13 24ZM15 34.7C17.2135 33.7288 19.5857 33.1696 22 33.05V42.9C19.15 42.3 16.61 39.17 15 34.7ZM24 42.9V33.05C26.4143 33.1696 28.7865 33.7288 31 34.7C29.39 39.17 26.85 42.3 24 42.9ZM31.67 32.79C29.2401 31.7494 26.6411 31.1598 24 31.05V24H33C32.9294 26.9744 32.4825 29.9279 31.67 32.79Z" fill="#BEC6C6"/>
<path d="M23 45C18.6488 45 14.3953 43.7097 10.7775 41.2923C7.15957 38.8749 4.33978 35.439 2.67465 31.419C1.00952 27.3991 0.573849 22.9756 1.42272 18.708C2.2716 14.4404 4.3669 10.5204 7.44365 7.44365C10.5204 4.36689 14.4404 2.27159 18.708 1.42272C22.9756 0.573844 27.3991 1.00952 31.419 2.67464C35.439 4.33977 38.8749 7.15957 41.2923 10.7774C43.7097 14.3953 45 18.6488 45 23C45 28.8348 42.6822 34.4305 38.5564 38.5563C34.4306 42.6821 28.8348 45 23 45ZM23 2.99999C19.0444 2.99999 15.1776 4.17297 11.8886 6.3706C8.59961 8.56823 6.03616 11.6918 4.52241 15.3463C3.00866 19.0008 2.61259 23.0222 3.38429 26.9018C4.156 30.7814 6.06081 34.3451 8.85786 37.1421C11.6549 39.9392 15.2186 41.844 19.0982 42.6157C22.9778 43.3874 26.9991 42.9913 30.6537 41.4776C34.3082 39.9638 37.4318 37.4004 39.6294 34.1114C41.827 30.8224 43 26.9556 43 23C43 17.6957 40.8929 12.6086 37.1421 8.85786C33.3914 5.10713 28.3043 2.99999 23 2.99999Z" fill="#414141"/>
<path d="M38 47C35.3794 46.1252 33.1002 44.4484 31.485 42.207C29.8699 39.9655 29.0005 37.2728 29 34.51V26C30.5391 26.3076 32.1303 26.2303 33.6324 25.775C35.1344 25.3197 36.5008 24.5004 37.61 23.39L38 23L38.39 23.39C39.4982 24.5019 40.8645 25.3222 42.3668 25.7776C43.8692 26.233 45.4609 26.3094 47 26V34.51C46.9995 37.2728 46.1301 39.9655 44.515 42.207C42.8998 44.4484 40.6206 46.1252 38 47Z" fill="#06C4D9"/>
</svg>
