<svg width="143" height="145" viewBox="0 0 143 145" fill="none" xmlns="http://www.w3.org/2000/svg">
<path opacity="0.25" d="M98.8394 42.3744C84.2509 31.1464 62.2669 20.7966 48.9916 18.8981C29.6547 16.0401 14.5205 18.8981 16.9654 51.867C19.8346 90.3477 30.3416 124.174 48.0015 124.011C65.6616 123.847 175.804 101.637 98.8394 42.3744Z" fill="url(#paint0_linear_213_5)"/>
<path opacity="0.25" d="M98.8394 42.3744C84.2509 31.1464 62.2669 20.7966 48.9916 18.8981C29.6547 16.0401 14.5205 18.8981 16.9654 51.867C19.8346 90.3477 30.3416 124.174 48.0015 124.011C65.6616 123.847 175.804 101.637 98.8394 42.3744Z" fill="url(#paint1_linear_213_5)"/>
<path opacity="0.5" d="M66.2474 22.1031C57.5994 28.6764 26.5834 54.5822 18.5616 77.7726C10.5399 100.963 34.5244 125.664 53.6793 125.154C72.8345 124.643 90.757 105.822 90.757 105.822C173.682 39.1286 86.9383 6.36383 66.2474 22.1031Z" fill="url(#paint2_linear_213_5)"/>
<path opacity="0.5" d="M66.2474 22.1031C57.5994 28.6764 26.5834 54.5822 18.5616 77.7726C10.5399 100.963 34.5244 125.664 53.6793 125.154C72.8345 124.643 90.757 105.822 90.757 105.822C173.682 39.1286 86.9383 6.36383 66.2474 22.1031Z" fill="url(#paint3_linear_213_5)"/>
<path d="M71.1366 50.5581C66.8927 50.8604 62.9372 52.8171 60.1218 56.007C57.3064 59.1969 55.8562 63.3648 56.0835 67.6134C56.3109 71.8619 58.1975 75.8513 61.3372 78.7226C64.4769 81.5939 68.6186 83.1174 72.8705 82.9651C77.1224 82.8127 81.1445 80.9968 84.0707 77.9083C86.9969 74.8197 88.5933 70.7055 88.516 66.4516C88.4388 62.1977 86.6941 58.1442 83.6576 55.1639C80.6212 52.1836 76.5359 50.5149 72.2812 50.5171H72.247C71.8754 50.4873 71.5016 50.5011 71.1332 50.5581M65.5914 56.8277C64.8192 59.1408 64.334 61.9732 64.2008 65.0209H60.4425C60.6825 63.3718 61.2645 61.7911 62.1512 60.3802C63.0378 58.9693 64.2096 57.7592 65.5914 56.8277ZM64.3135 70.1459C64.4907 72.364 64.9253 74.554 65.6085 76.6717C63.2978 75.1212 61.6002 72.8134 60.808 70.1459H64.3135ZM77.864 77.3209L77.8743 77.2935C78.626 75.288 79.1487 72.8314 79.3879 70.1459H83.7475C83.2943 71.6735 82.5404 73.0951 81.5301 74.3273C80.5197 75.5594 79.2733 76.5772 77.864 77.3209ZM74.239 70.1459C74.0702 71.9688 73.6801 73.7644 73.0773 75.493C72.6741 76.5624 72.2573 77.2491 71.9293 77.6215L71.8507 77.707L71.7721 77.6215C71.4407 77.2457 71.0273 76.5624 70.6275 75.493C70.1014 74.0921 69.6845 72.2574 69.4625 70.1459H74.239ZM74.3722 65.0209H69.3292C69.4727 62.1919 69.9613 59.7353 70.6275 57.9655C71.0273 56.896 71.4407 56.2093 71.7721 55.8369L71.8507 55.7515L71.9293 55.8369C72.2607 56.2127 72.6741 56.896 73.0739 57.9655C73.7401 59.7353 74.2287 62.1919 74.3722 65.0209ZM79.5006 65.0209C79.3537 61.6794 78.7831 58.5975 77.8777 56.1785C79.5389 57.0586 80.9693 58.3178 82.0527 59.8542C83.1361 61.3905 83.842 63.1606 84.1131 65.0209H79.5006ZM71.6594 55.5909L71.6696 55.5977L71.656 55.5875L71.6594 55.5909ZM52.2083 36.8334C49.9429 36.8334 47.7703 37.7333 46.1684 39.3352C44.5665 40.937 43.6666 43.1097 43.6666 45.375V96.625C43.6666 98.8904 44.5665 101.063 46.1684 102.665C47.7703 104.267 49.9429 105.167 52.2083 105.167H97.4791C98.1587 105.167 98.8105 104.897 99.2911 104.416C99.7717 103.936 100.042 103.284 100.042 102.604C100.042 101.925 99.7717 101.273 99.2911 100.792C98.8105 100.312 98.1587 100.042 97.4791 100.042H52.2083C51.3021 100.042 50.4331 99.6817 49.7923 99.041C49.1516 98.4002 48.7916 97.5312 48.7916 96.625H97.4791C98.1587 96.625 98.8105 96.3551 99.2911 95.8745C99.7717 95.3939 100.042 94.7422 100.042 94.0625V45.375C100.042 44.2533 99.8207 43.1426 99.3914 42.1063C98.9622 41.07 98.333 40.1283 97.5398 39.3352C96.7467 38.542 95.805 37.9128 94.7687 37.4836C93.7324 37.0543 92.6217 36.8334 91.5 36.8334H52.2083ZM94.9166 45.375V68.4375V91.5H48.7916V45.375C48.7916 44.4689 49.1516 43.5998 49.7923 42.9591C50.4331 42.3183 51.3021 41.9584 52.2083 41.9584H91.5C92.4061 41.9584 93.2752 42.3183 93.9159 42.9591C94.5567 43.5998 94.9166 44.4689 94.9166 45.375Z" fill="white"/>
<defs>
<linearGradient id="paint0_linear_213_5" x1="117.594" y1="22.7788" x2="-1.67058" y2="117.425" gradientUnits="userSpaceOnUse">
<stop offset="0.337" stop-color="#006FFF"/>
<stop offset="1" stop-color="#EA6060" stop-opacity="0"/>
</linearGradient>
<linearGradient id="paint1_linear_213_5" x1="117.594" y1="22.7788" x2="-1.67058" y2="117.425" gradientUnits="userSpaceOnUse">
<stop offset="0.337" stop-color="#006FFF"/>
<stop offset="1" stop-color="#EA6060" stop-opacity="0"/>
</linearGradient>
<linearGradient id="paint2_linear_213_5" x1="71.4788" y1="18.208" x2="71.4788" y2="125.162" gradientUnits="userSpaceOnUse">
<stop stop-color="#FF0000"/>
<stop offset="1" stop-color="#C8FFFF" stop-opacity="0"/>
</linearGradient>
<linearGradient id="paint3_linear_213_5" x1="71.4788" y1="18.208" x2="71.4788" y2="125.162" gradientUnits="userSpaceOnUse">
<stop stop-color="#FF0000"/>
<stop offset="1" stop-color="#C8FFFF" stop-opacity="0"/>
</linearGradient>
</defs>
</svg>
