<svg width="48" height="48" viewBox="0 0 48 48" fill="none" xmlns="http://www.w3.org/2000/svg">
<path d="M41.31 17.06C40.4579 19.6296 40.3987 22.3962 41.14 25C41.8 27.29 42.53 29.44 41.49 32.54C40.4264 35.7269 38.5496 38.5811 36.0452 40.8207C33.5409 43.0603 30.4955 44.6077 27.21 45.31L24 46L20.79 45.31C17.5034 44.6068 14.4572 43.0579 11.9528 40.8164C9.44828 38.575 7.57219 35.7188 6.51 32.53C5.51 29.4 6.24 27.14 6.86 24.99C7.59929 22.3894 7.54006 19.6266 6.69 17.06C5.8 14.42 6 12.62 6 8H7C8.5913 8 10.1174 7.36786 11.2426 6.24264C12.3679 5.11742 13 3.5913 13 2H35C35 3.5913 35.6321 5.11742 36.7574 6.24264C37.8826 7.36786 39.4087 8 41 8H42C42 12.82 42.18 14.48 41.31 17.06Z" fill="#BEC6C6"/>
<path d="M21.42 42.38C18.6456 41.7807 16.0749 40.4698 13.9605 38.5763C11.8461 36.6828 10.2606 34.2717 9.36 31.58C8.57 29.24 9.26 27.49 9.74 25.82C10.65 22.6401 10.5803 19.2597 9.54 16.12C9.03201 14.3886 8.84893 12.5781 9 10.78C10.4818 10.4428 11.8541 9.73596 12.9889 8.72528C14.1237 7.71459 14.9842 6.433 15.49 5H32.49C32.9976 6.43543 33.8611 7.71862 34.9996 8.7295C36.1382 9.74037 37.5146 10.4459 39 10.78C39.1487 12.5708 38.969 14.3737 38.47 16.1C37.4235 19.2412 37.3469 22.6246 38.25 25.81C38.81 27.75 39.41 29.31 38.65 31.57C37.7482 34.2638 36.1614 36.6768 34.0453 38.572C31.9291 40.4672 29.3565 41.7795 26.58 42.38L24 42.93L21.42 42.38Z" fill="#F8F9F9"/>
<path d="M28 23C27.7348 23 27.4804 22.8946 27.2929 22.7071C27.1054 22.5196 27 22.2652 27 22V18C27 17.2044 26.6839 16.4413 26.1213 15.8787C25.5587 15.3161 24.7956 15 24 15C23.2044 15 22.4413 15.3161 21.8787 15.8787C21.3161 16.4413 21 17.2044 21 18V22C21 22.2652 20.8946 22.5196 20.7071 22.7071C20.5196 22.8946 20.2652 23 20 23C19.7348 23 19.4804 22.8946 19.2929 22.7071C19.1054 22.5196 19 22.2652 19 22V18C19 16.6739 19.5268 15.4021 20.4645 14.4645C21.4021 13.5268 22.6739 13 24 13C25.3261 13 26.5979 13.5268 27.5355 14.4645C28.4732 15.4021 29 16.6739 29 18V22C29 22.2652 28.8946 22.5196 28.7071 22.7071C28.5196 22.8946 28.2652 23 28 23Z" fill="#BEC6C6"/>
<path d="M29 21H19C17.8954 21 17 21.8954 17 23V31C17 32.1046 17.8954 33 19 33H29C30.1046 33 31 32.1046 31 31V23C31 21.8954 30.1046 21 29 21Z" fill="#06C4D9"/>
<path d="M24 24C23.5635 24.0045 23.1405 24.1516 22.7954 24.4189C22.4504 24.6863 22.2023 25.0592 22.089 25.4807C21.9756 25.9022 22.0033 26.3493 22.1678 26.7536C22.3323 27.1579 22.6246 27.4973 23 27.72V29C23 29.2652 23.1053 29.5196 23.2929 29.7071C23.4804 29.8946 23.7348 30 24 30C24.2652 30 24.5195 29.8946 24.7071 29.7071C24.8946 29.5196 25 29.2652 25 29V27.72C25.3754 27.4973 25.6676 27.1579 25.8321 26.7536C25.9966 26.3493 26.0243 25.9022 25.911 25.4807C25.7977 25.0592 25.5496 24.6863 25.2045 24.4189C24.8595 24.1516 24.4364 24.0045 24 24Z" fill="#F8F9F9"/>
<path d="M24 47C23.85 47 24 47 20.58 46.29C11.08 44.25 5 35.62 5 29.39C5.04868 27.792 5.35251 26.2121 5.9 24.71C6.58754 22.3031 6.53177 19.7446 5.74 17.37C4.77 14.49 5 12.41 5 8C5 7.73478 5.10535 7.48043 5.29289 7.29289C5.48043 7.10536 5.73478 7 6 7H7C7.65661 7 8.30678 6.87067 8.91341 6.6194C9.52004 6.36812 10.0712 5.99983 10.5355 5.53553C10.9998 5.07124 11.3681 4.52005 11.6194 3.91342C11.8707 3.30679 12 2.65661 12 2C12 1.73478 12.1054 1.48043 12.2929 1.29289C12.4804 1.10536 12.7348 1 13 1H35C35.2652 1 35.5196 1.10536 35.7071 1.29289C35.8946 1.48043 36 1.73478 36 2C36 3.32608 36.5268 4.59785 37.4645 5.53553C38.4021 6.47322 39.6739 7 41 7H42C42.2652 7 42.5196 7.10536 42.7071 7.29289C42.8946 7.48043 43 7.73478 43 8C43 12.43 43.21 14.56 42.26 17.38C40 24.22 44.55 26.58 42.44 32.85C41.3163 36.1966 39.3435 39.1944 36.7142 41.5502C34.085 43.906 30.8894 45.5391 27.44 46.29C24 47 24.15 47 24 47ZM7 9C7 12.7 6.84 14.38 7.64 16.74C8.55822 19.4968 8.62097 22.4669 7.82 25.26C7.2 27.42 6.5 29.37 7.46 32.26C8.48027 35.2711 10.2641 37.9661 12.6373 40.0816C15.0106 42.1972 17.8919 43.661 21 44.33L24 45L27 44.35C30.116 43.6746 33.0027 42.2003 35.3766 40.0719C37.7505 37.9435 39.5299 35.2341 40.54 32.21C41.54 29.34 40.75 27.26 40.18 25.27C39.3784 22.477 39.4411 19.5067 40.36 16.75C40.7785 15.4818 40.9945 14.1555 41 12.82V9C39.3164 9.00043 37.6891 8.39408 36.4163 7.29209C35.1435 6.1901 34.3105 4.6663 34.07 3H13.93C13.6895 4.6663 12.8565 6.1901 11.5837 7.29209C10.3109 8.39408 8.68356 9.00043 7 9Z" fill="#414141"/>
</svg>
