<svg width="143" height="145" viewBox="0 0 143 145" fill="none" xmlns="http://www.w3.org/2000/svg">
<path opacity="0.25" d="M98.8394 42.3744C84.2509 31.1464 62.2669 20.7966 48.9916 18.8981C29.6547 16.0401 14.5205 18.8981 16.9654 51.867C19.8346 90.3477 30.3416 124.174 48.0015 124.011C65.6616 123.847 175.804 101.637 98.8394 42.3744Z" fill="url(#paint0_linear_202_137)"/>
<path opacity="0.25" d="M98.8394 42.3744C84.2509 31.1464 62.2669 20.7966 48.9916 18.8981C29.6547 16.0401 14.5205 18.8981 16.9654 51.867C19.8346 90.3477 30.3416 124.174 48.0015 124.011C65.6616 123.847 175.804 101.637 98.8394 42.3744Z" fill="url(#paint1_linear_202_137)"/>
<path opacity="0.5" d="M66.2474 22.1031C57.5994 28.6764 26.5834 54.5822 18.5616 77.7726C10.5399 100.963 34.5244 125.664 53.6793 125.154C72.8345 124.643 90.757 105.822 90.757 105.822C173.682 39.1286 86.9383 6.36383 66.2474 22.1031Z" fill="url(#paint2_linear_202_137)"/>
<path opacity="0.5" d="M66.2474 22.1031C57.5994 28.6764 26.5834 54.5822 18.5616 77.7726C10.5399 100.963 34.5244 125.664 53.6793 125.154C72.8345 124.643 90.757 105.822 90.757 105.822C173.682 39.1286 86.9383 6.36383 66.2474 22.1031Z" fill="url(#paint3_linear_202_137)"/>
<path d="M67.581 53.3666L51.8572 107.929H55.2786L70.4609 55.2441L74.0596 67.7331H70.2837L69.3188 71.0828H75.0261L77.9225 81.1316H66.4241L65.4592 84.4813H78.8874L81.7853 94.5301H62.5613L61.5964 97.8797H82.7486L85.6449 107.929H89.0647L73.3409 53.3666C74.5732 52.4521 75.3839 50.98 75.3839 49.3102C75.3839 46.5401 73.1751 44.2858 70.4609 44.2858C67.7468 44.2858 65.538 46.5401 65.538 49.3102C65.538 50.98 66.3486 52.4521 67.581 53.3666ZM70.4609 47.6354C71.3651 47.6354 72.1019 48.3874 72.1019 49.3102C72.1019 50.233 71.3651 50.985 70.4609 50.985C69.5568 50.985 68.82 50.233 68.82 49.3102C68.82 48.3874 69.5568 47.6354 70.4609 47.6354Z" fill="white"/>
<path d="M54.4125 29.425L51.7687 32.0875L55.6875 36.0062C53.2313 39.1937 51.75 43.1687 51.75 47.5C51.75 54.4375 55.5187 60.475 61.1063 63.7188L62.9813 60.475C58.5188 57.8687 55.5 53.05 55.5 47.5C55.5 44.2 56.5688 41.1625 58.3688 38.7063L61.05 41.4062C59.925 43.15 59.25 45.25 59.25 47.5C59.25 51.6625 61.5188 55.2813 64.875 57.2313L66.75 53.9688C64.5188 52.6562 63 50.275 63 47.5C63 46.2812 63.3188 45.1562 63.825 44.1438L66.7875 47.1063L66.75 47.5C66.75 49.5625 68.4375 51.25 70.5 51.25L70.8938 51.2125L84.9938 65.3125L87.6375 62.6688L54.4125 29.425ZM81.2063 50.9125C81.5438 49.8438 81.75 48.6812 81.75 47.5C81.75 41.2937 76.7063 36.25 70.5 36.25C69.3188 36.25 68.1563 36.4562 67.0875 36.7937L70.3125 40.0188C70.3688 40.0188 70.425 40 70.5 40C74.6438 40 78 43.3562 78 47.5C78 47.575 77.9813 47.6312 77.9813 47.7062L81.2063 50.9125ZM70.5 32.5C78.7875 32.5 85.5 39.2125 85.5 47.5C85.5 49.75 84.9563 51.85 84.0563 53.7812L86.85 56.575C88.4222 53.8088 89.2492 50.6818 89.25 47.5C89.25 37.15 80.85 28.75 70.5 28.75C67.2 28.75 64.125 29.65 61.425 31.15L64.2 33.925C66.1125 33.025 68.25 32.5 70.5 32.5Z" fill="white"/>
<defs>
<linearGradient id="paint0_linear_202_137" x1="117.594" y1="22.7788" x2="-1.67058" y2="117.425" gradientUnits="userSpaceOnUse">
<stop offset="0.337" stop-color="#006FFF"/>
<stop offset="1" stop-color="#EA6060" stop-opacity="0"/>
</linearGradient>
<linearGradient id="paint1_linear_202_137" x1="117.594" y1="22.7788" x2="-1.67058" y2="117.425" gradientUnits="userSpaceOnUse">
<stop offset="0.337" stop-color="#006FFF"/>
<stop offset="1" stop-color="#EA6060" stop-opacity="0"/>
</linearGradient>
<linearGradient id="paint2_linear_202_137" x1="71.4788" y1="18.208" x2="71.4788" y2="125.162" gradientUnits="userSpaceOnUse">
<stop stop-color="#FF0000"/>
<stop offset="1" stop-color="#C8FFFF" stop-opacity="0"/>
</linearGradient>
<linearGradient id="paint3_linear_202_137" x1="71.4788" y1="18.208" x2="71.4788" y2="125.162" gradientUnits="userSpaceOnUse">
<stop stop-color="#FF0000"/>
<stop offset="1" stop-color="#C8FFFF" stop-opacity="0"/>
</linearGradient>
</defs>
</svg>
