<svg width="48" height="48" viewBox="0 0 48 48" fill="none" xmlns="http://www.w3.org/2000/svg">
<g clip-path="url(#clip0_2_617)">
<path d="M4 38C5.10457 38 6 37.1046 6 36C6 34.8954 5.10457 34 4 34C2.89543 34 2 34.8954 2 36C2 37.1046 2.89543 38 4 38Z" fill="#BEC6C6"/>
<path d="M44 38C45.1046 38 46 37.1046 46 36C46 34.8954 45.1046 34 44 34C42.8954 34 42 34.8954 42 36C42 37.1046 42.8954 38 44 38Z" fill="#BEC6C6"/>
<path d="M9 46C10.1046 46 11 45.1046 11 44C11 42.8954 10.1046 42 9 42C7.89543 42 7 42.8954 7 44C7 45.1046 7.89543 46 9 46Z" fill="#F8F9F9"/>
<path d="M5 24C6.10457 24 7 23.1046 7 22C7 20.8954 6.10457 20 5 20C3.89543 20 3 20.8954 3 22C3 23.1046 3.89543 24 5 24Z" fill="#F8F9F9"/>
<path d="M39 46C40.1046 46 41 45.1046 41 44C41 42.8954 40.1046 42 39 42C37.8954 42 37 42.8954 37 44C37 45.1046 37.8954 46 39 46Z" fill="#F8F9F9"/>
<path d="M43 24C44.1046 24 45 23.1046 45 22C45 20.8954 44.1046 20 43 20C41.8954 20 41 20.8954 41 22C41 23.1046 41.8954 24 43 24Z" fill="#F8F9F9"/>
<path d="M24 30C31.732 30 38 23.732 38 16C38 8.26801 31.732 2 24 2C16.268 2 10 8.26801 10 16C10 23.732 16.268 30 24 30Z" fill="#BEC6C6"/>
<path d="M27 29.68V34H21V29.68C22.9774 30.1052 25.0226 30.1052 27 29.68Z" fill="#F8F9F9"/>
<path d="M28.58 41C28.6396 41.6374 28.5656 42.2803 28.3625 42.8874C28.1595 43.4946 27.8319 44.0527 27.4008 44.526C26.9697 44.9993 26.4446 45.3774 25.859 45.6361C25.2734 45.8949 24.6402 46.0285 24 46.0285C23.3598 46.0285 22.7266 45.8949 22.141 45.6361C21.5554 45.3774 21.0303 44.9993 20.5992 44.526C20.1681 44.0527 19.8405 43.4946 19.6375 42.8874C19.4344 42.2803 19.3604 41.6374 19.42 41L20 34H28L28.58 41Z" fill="#BEC6C6"/>
<path d="M24 27C30.0751 27 35 22.0751 35 16C35 9.92487 30.0751 5 24 5C17.9249 5 13 9.92487 13 16C13 22.0751 17.9249 27 24 27Z" fill="#F8F9F9"/>
<path d="M31 18H28C27.7348 18 27.4804 17.8946 27.2929 17.7071C27.1054 17.5196 27 17.2652 27 17C27 16.7348 27.1054 16.4804 27.2929 16.2929C27.4804 16.1054 27.7348 16 28 16H31C31.2652 16 31.5196 16.1054 31.7071 16.2929C31.8946 16.4804 32 16.7348 32 17C32 17.2652 31.8946 17.5196 31.7071 17.7071C31.5196 17.8946 31.2652 18 31 18Z" fill="#BEC6C6"/>
<path d="M30 23C29.46 23 29.43 22.85 27.29 20.71C27.1968 20.6168 27.1228 20.5061 27.0723 20.3843C27.0219 20.2624 26.9959 20.1319 26.9959 20C26.9959 19.8681 27.0219 19.7376 27.0723 19.6158C27.1228 19.4939 27.1968 19.3832 27.29 19.29C27.3832 19.1968 27.4939 19.1228 27.6158 19.0723C27.7376 19.0219 27.8681 18.9959 28 18.9959C28.1319 18.9959 28.2624 19.0219 28.3842 19.0723C28.5061 19.1228 28.6168 19.1968 28.71 19.29L30.71 21.29C30.851 21.4299 30.9472 21.6086 30.9863 21.8033C31.0254 21.9981 31.0055 22.2 30.9294 22.3835C30.8532 22.5669 30.7241 22.7235 30.5586 22.8333C30.3931 22.9431 30.1986 23.0012 30 23Z" fill="#BEC6C6"/>
<path d="M28 14C27.8014 14.0012 27.6069 13.9431 27.4414 13.8333C27.2759 13.7235 27.1468 13.5669 27.0706 13.3835C26.9945 13.2 26.9746 12.9981 27.0137 12.8033C27.0528 12.6086 27.149 12.4299 27.29 12.29L29.29 10.29C29.4783 10.1017 29.7337 9.99591 30 9.99591C30.2663 9.99591 30.5217 10.1017 30.71 10.29C30.8983 10.4783 31.0041 10.7337 31.0041 11C31.0041 11.2663 30.8983 11.5217 30.71 11.71C28.53 13.89 28.54 14 28 14Z" fill="#BEC6C6"/>
<path d="M20 18H17C16.7348 18 16.4804 17.8946 16.2929 17.7071C16.1054 17.5196 16 17.2652 16 17C16 16.7348 16.1054 16.4804 16.2929 16.2929C16.4804 16.1054 16.7348 16 17 16H20C20.2652 16 20.5196 16.1054 20.7071 16.2929C20.8946 16.4804 21 16.7348 21 17C21 17.2652 20.8946 17.5196 20.7071 17.7071C20.5196 17.8946 20.2652 18 20 18Z" fill="#BEC6C6"/>
<path d="M18 23C17.8014 23.0012 17.6069 22.9431 17.4414 22.8333C17.2759 22.7235 17.1468 22.5669 17.0706 22.3835C16.9945 22.2 16.9746 21.9981 17.0137 21.8033C17.0528 21.6086 17.149 21.4299 17.29 21.29L19.29 19.29C19.4783 19.1017 19.7337 18.9959 20 18.9959C20.2663 18.9959 20.5217 19.1017 20.71 19.29C20.8983 19.4783 21.0041 19.7337 21.0041 20C21.0041 20.2663 20.8983 20.5217 20.71 20.71C18.53 22.89 18.54 23 18 23Z" fill="#BEC6C6"/>
<path d="M20 14C19.46 14 19.43 13.85 17.29 11.71C17.1968 11.6168 17.1228 11.5061 17.0723 11.3843C17.0219 11.2624 16.9959 11.1319 16.9959 11C16.9959 10.7337 17.1017 10.4783 17.29 10.29C17.4783 10.1017 17.7337 9.99591 18 9.99591C18.1319 9.99591 18.2624 10.0219 18.3842 10.0723C18.5061 10.1228 18.6168 10.1968 18.71 10.29L20.71 12.29C20.851 12.4299 20.9472 12.6086 20.9863 12.8033C21.0254 12.9981 21.0055 13.2 20.9294 13.3835C20.8532 13.5669 20.7241 13.7235 20.5586 13.8333C20.3931 13.9431 20.1986 14.0012 20 14Z" fill="#BEC6C6"/>
<path d="M27 12C26.9995 11.3927 26.8146 10.8 26.47 10.3L26.89 9.45C26.9609 9.33217 27.0067 9.20099 27.0246 9.06464C27.0426 8.9283 27.0321 8.78973 26.9941 8.65759C26.956 8.52545 26.8911 8.40258 26.8034 8.29666C26.7157 8.19075 26.6071 8.10405 26.4844 8.042C26.3617 7.97996 26.2275 7.94388 26.0902 7.93604C25.9529 7.9282 25.8155 7.94876 25.6865 7.99644C25.5575 8.04411 25.4397 8.11788 25.3405 8.21312C25.2413 8.30837 25.1629 8.42305 25.11 8.55L24.82 9.13C24.2866 8.95996 23.7134 8.95996 23.18 9.13L22.89 8.55C22.7598 8.33365 22.5526 8.17455 22.31 8.10466C22.0674 8.03476 21.8073 8.05923 21.5819 8.17316C21.3566 8.28709 21.1827 8.48205 21.0952 8.71888C21.0076 8.95572 21.0129 9.2169 21.11 9.45L21.53 10.3C21.1854 10.8 21.0005 11.3927 21 12C20.4696 12 19.9609 12.2107 19.5858 12.5858C19.2107 12.9609 19 13.4696 19 14V19C19 20.3261 19.5268 21.5978 20.4645 22.5355C21.4021 23.4732 22.6739 24 24 24C25.3261 24 26.5979 23.4732 27.5355 22.5355C28.4732 21.5978 29 20.3261 29 19V14C29 13.4696 28.7893 12.9609 28.4142 12.5858C28.0391 12.2107 27.5304 12 27 12Z" fill="#06C4D9"/>
<path d="M29 15.62C26.07 17.09 25.91 17.23 25 17.42V23.9C24.3401 24.0347 23.6599 24.0347 23 23.9V17.42C22.09 17.23 21.94 17.09 19 15.62C18.9216 14.8896 18.9519 14.1515 19.09 13.43L22.66 15.21C23.0761 15.4177 23.5349 15.5259 24 15.5259C24.4651 15.5259 24.9239 15.4177 25.34 15.21L28.91 13.43C29.0514 14.1511 29.0818 14.8897 29 15.62Z" fill="#F9F9F9"/>
<path d="M24 43C24.5523 43 25 42.5523 25 42C25 41.4477 24.5523 41 24 41C23.4477 41 23 41.4477 23 42C23 42.5523 23.4477 43 24 43Z" fill="#F8F9F9"/>
<path d="M29 33.92C28.9798 33.6689 28.8657 33.4346 28.6803 33.264C28.4949 33.0935 28.2519 32.9992 28 33V30.44C31.4972 29.4724 34.5251 27.2698 36.5226 24.2405C38.5202 21.2111 39.3518 17.5604 38.8636 13.9648C38.3753 10.3692 36.6002 7.07243 33.8672 4.68547C31.1342 2.29851 27.6286 0.983154 24 0.983154C20.3714 0.983154 16.8658 2.29851 14.1328 4.68547C11.3998 7.07243 9.62467 10.3692 9.13641 13.9648C8.64816 17.5604 9.47984 21.2111 11.4774 24.2405C13.4749 27.2698 16.5028 29.4724 20 30.44V33C19.7481 32.9992 19.5051 33.0935 19.3197 33.264C19.1343 33.4346 19.0202 33.6689 19 33.92L18.42 40.92C18.3545 41.6925 18.4502 42.4701 18.7009 43.2037C18.9516 43.9374 19.3519 44.6109 19.8764 45.1818C20.4009 45.7526 21.0383 46.2084 21.7481 46.5201C22.4579 46.8319 23.2247 46.9928 24 46.9928C24.7753 46.9928 25.5421 46.8319 26.2519 46.5201C26.9617 46.2084 27.5991 45.7526 28.1236 45.1818C28.6481 44.6109 29.0484 43.9374 29.2991 43.2037C29.5498 42.4701 29.6455 41.6925 29.58 40.92L29 33.92ZM11 16C11 13.4288 11.7624 10.9154 13.1909 8.77757C14.6194 6.63973 16.6497 4.97349 19.0251 3.98955C21.4006 3.00561 24.0144 2.74817 26.5362 3.24978C29.0579 3.75139 31.3743 4.98952 33.1924 6.8076C35.0105 8.62568 36.2486 10.9421 36.7502 13.4638C37.2518 15.9856 36.9944 18.5994 36.0104 20.9749C35.0265 23.3503 33.3603 25.3806 31.2224 26.8091C29.0846 28.2376 26.5712 29 24 29C20.5522 29 17.2456 27.6303 14.8076 25.1924C12.3696 22.7544 11 19.4478 11 16ZM22 30.85C23.3258 31.05 24.6742 31.05 26 30.85V33H22V30.85ZM26.65 43.85C26.1396 44.3976 25.4716 44.773 24.7384 44.9242C24.0053 45.0754 23.2432 44.9949 22.5578 44.694C21.8724 44.393 21.2975 43.8864 20.9127 43.2443C20.5279 42.6022 20.3522 41.8563 20.41 41.11L20.92 35.01H27C27.12 35.01 27 34.33 27.59 41.11C27.6314 41.6054 27.5693 42.1039 27.4074 42.574C27.2456 43.044 26.9876 43.4751 26.65 43.84V43.85Z" fill="#414141"/>
<path d="M15 31C14.7348 31 14.4804 31.1054 14.2929 31.2929C14.1054 31.4804 14 31.7348 14 32V35H6.82C6.5841 34.3328 6.11993 33.7704 5.50952 33.4124C4.89911 33.0543 4.18176 32.9235 3.48427 33.0432C2.78677 33.1629 2.15404 33.5253 1.69789 34.0663C1.24175 34.6074 0.991573 35.2923 0.991573 36C0.991573 36.7077 1.24175 37.3926 1.69789 37.9337C2.15404 38.4747 2.78677 38.8371 3.48427 38.9568C4.18176 39.0765 4.89911 38.9457 5.50952 38.5876C6.11993 38.2296 6.5841 37.6672 6.82 37H15C15.2652 37 15.5196 36.8946 15.7071 36.7071C15.8946 36.5196 16 36.2652 16 36V32C16 31.7348 15.8946 31.4804 15.7071 31.2929C15.5196 31.1054 15.2652 31 15 31ZM4 37C3.80222 37 3.60888 36.9414 3.44443 36.8315C3.27998 36.7216 3.15181 36.5654 3.07612 36.3827C3.00043 36.2 2.98063 35.9989 3.01921 35.8049C3.0578 35.6109 3.15304 35.4327 3.29289 35.2929C3.43275 35.153 3.61093 35.0578 3.80491 35.0192C3.99889 34.9806 4.19996 35.0004 4.38268 35.0761C4.56541 35.1518 4.72159 35.28 4.83147 35.4444C4.94135 35.6089 5 35.8022 5 36C5 36.2652 4.89464 36.5196 4.70711 36.7071C4.51957 36.8946 4.26522 37 4 37Z" fill="#414141"/>
<path d="M4 24.82V27C3.99981 27.2003 4.05975 27.396 4.17208 27.5618C4.28441 27.7276 4.44393 27.8559 4.63 27.93L9 29.68V32C9 32.2652 9.10536 32.5195 9.29289 32.7071C9.48043 32.8946 9.73478 33 10 33C10.2652 33 10.5196 32.8946 10.7071 32.7071C10.8946 32.5195 11 32.2652 11 32V29C11.0002 28.7997 10.9402 28.604 10.8279 28.4382C10.7156 28.2723 10.5561 28.1441 10.37 28.07L6 26.32V24.82C6.66721 24.5841 7.22955 24.1199 7.58763 23.5095C7.94571 22.8991 8.07647 22.1817 7.9568 21.4842C7.83712 20.7867 7.47473 20.154 6.93366 19.6979C6.39259 19.2417 5.70769 18.9915 5 18.9915C4.29231 18.9915 3.60741 19.2417 3.06634 19.6979C2.52527 20.154 2.16288 20.7867 2.0432 21.4842C1.92353 22.1817 2.05429 22.8991 2.41237 23.5095C2.77045 24.1199 3.33279 24.5841 4 24.82ZM5 21C5.19778 21 5.39112 21.0586 5.55557 21.1685C5.72002 21.2784 5.84819 21.4346 5.92388 21.6173C5.99957 21.8 6.01937 22.0011 5.98079 22.1951C5.9422 22.389 5.84696 22.5672 5.70711 22.7071C5.56725 22.8469 5.38907 22.9422 5.19509 22.9808C5.00111 23.0193 4.80004 22.9995 4.61732 22.9239C4.43459 22.8482 4.27841 22.72 4.16853 22.5555C4.05865 22.3911 4 22.1978 4 22C4 21.7348 4.10536 21.4804 4.29289 21.2929C4.48043 21.1053 4.73478 21 5 21Z" fill="#414141"/>
<path d="M15 39C12.81 39 12.66 38.92 12.29 39.29L10.29 41.29C9.65148 40.9842 8.9254 40.9141 8.24017 41.0921C7.55494 41.27 6.95472 41.6846 6.54568 42.2624C6.13663 42.8402 5.94512 43.5441 6.00501 44.2495C6.0649 44.9549 6.37233 45.6165 6.87294 46.1171C7.37354 46.6177 8.03505 46.9251 8.74047 46.985C9.44589 47.0449 10.1498 46.8534 10.7276 46.4443C11.3054 46.0353 11.72 45.4351 11.8979 44.7498C12.0759 44.0646 12.0058 43.3385 11.7 42.7L13.41 41H15C15.2652 41 15.5196 40.8946 15.7071 40.7071C15.8946 40.5196 16 40.2652 16 40C16 39.7348 15.8946 39.4804 15.7071 39.2929C15.5196 39.1054 15.2652 39 15 39ZM9 45C8.83555 45.0007 8.67346 44.9608 8.5281 44.8839C8.38275 44.807 8.2586 44.6954 8.16666 44.559C8.07473 44.4227 8.01784 44.2658 8.00104 44.1022C7.98424 43.9386 8.00804 43.7734 8.07035 43.6212C8.13265 43.469 8.23153 43.3345 8.35822 43.2296C8.48491 43.1248 8.6355 43.0528 8.79667 43.02C8.95783 42.9873 9.12458 42.9948 9.28214 43.0419C9.43971 43.089 9.58324 43.1742 9.7 43.29C9.84042 43.4293 9.93639 43.607 9.97578 43.8009C10.0152 43.9947 9.99619 44.1958 9.92127 44.3788C9.84634 44.5619 9.71883 44.7186 9.55484 44.8291C9.39086 44.9397 9.19777 44.9992 9 45Z" fill="#414141"/>
<path d="M37.71 41.3C35.59 39.18 35.55 39 35 39H33C32.7348 39 32.4804 39.1054 32.2929 39.2929C32.1054 39.4804 32 39.7348 32 40C32 40.2652 32.1054 40.5196 32.2929 40.7071C32.4804 40.8946 32.7348 41 33 41H34.59L36.3 42.71C35.9942 43.3485 35.9241 44.0746 36.1021 44.7598C36.28 45.4451 36.6946 46.0453 37.2724 46.4543C37.8502 46.8634 38.5541 47.0549 39.2595 46.995C39.965 46.9351 40.6265 46.6277 41.1271 46.1271C41.6277 45.6265 41.9351 44.965 41.995 44.2595C42.0549 43.5541 41.8634 42.8502 41.4543 42.2724C41.0453 41.6946 40.4451 41.28 39.7598 41.1021C39.0746 40.9241 38.3485 40.9942 37.71 41.3ZM39 45C38.8034 44.9992 38.6114 44.9405 38.4481 44.8311C38.2847 44.7218 38.1571 44.5668 38.0814 44.3854C38.0056 44.204 37.985 44.0043 38.0221 43.8113C38.0592 43.6182 38.1524 43.4404 38.29 43.3C38.4055 43.1821 38.5484 43.0947 38.706 43.0455C38.8635 42.9963 39.0308 42.9868 39.1929 43.018C39.355 43.0491 39.5068 43.1199 39.6349 43.224C39.763 43.3281 39.8633 43.4623 39.9269 43.6146C39.9905 43.7669 40.0154 43.9326 39.9994 44.0969C39.9834 44.2611 39.927 44.4189 39.8353 44.5561C39.7435 44.6933 39.6192 44.8056 39.4734 44.883C39.3277 44.9605 39.165 45.0007 39 45Z" fill="#414141"/>
<path d="M44 33C43.3811 33.0017 42.7778 33.1949 42.2729 33.5529C41.7681 33.911 41.3863 34.4165 41.18 35H34V32C34 31.7348 33.8946 31.4804 33.7071 31.2929C33.5196 31.1054 33.2652 31 33 31C32.7348 31 32.4804 31.1054 32.2929 31.2929C32.1054 31.4804 32 31.7348 32 32V36C32 36.2652 32.1054 36.5196 32.2929 36.7071C32.4804 36.8946 32.7348 37 33 37H41.18C41.3635 37.5189 41.6861 37.9773 42.1126 38.3251C42.5392 38.6729 43.0532 38.8966 43.5984 38.9718C44.1435 39.0471 44.6989 38.9709 45.2037 38.7516C45.7085 38.5323 46.1432 38.1784 46.4603 37.7286C46.7775 37.2788 46.9647 36.7504 47.0017 36.2013C47.0386 35.6522 46.9238 35.1035 46.6697 34.6153C46.4157 34.1271 46.0323 33.7181 45.5614 33.4332C45.0905 33.1483 44.5504 32.9985 44 33ZM44 37C43.8022 37 43.6089 36.9414 43.4444 36.8315C43.28 36.7216 43.1518 36.5654 43.0761 36.3827C43.0004 36.2 42.9806 35.9989 43.0192 35.8049C43.0578 35.6109 43.153 35.4327 43.2929 35.2929C43.4327 35.153 43.6109 35.0578 43.8049 35.0192C43.9989 34.9806 44.2 35.0004 44.3827 35.0761C44.5654 35.1518 44.7216 35.28 44.8315 35.4444C44.9414 35.6089 45 35.8022 45 36C45 36.2652 44.8946 36.5196 44.7071 36.7071C44.5196 36.8946 44.2652 37 44 37Z" fill="#414141"/>
<path d="M42 24.82V26.32L37.63 28.07C37.4439 28.1441 37.2844 28.2723 37.1721 28.4382C37.0598 28.604 36.9998 28.7997 37 29V32C37 32.2652 37.1054 32.5195 37.2929 32.7071C37.4804 32.8946 37.7348 33 38 33C38.2652 33 38.5196 32.8946 38.7071 32.7071C38.8946 32.5195 39 32.2652 39 32V29.68L43.37 27.93C43.5561 27.8559 43.7156 27.7276 43.8279 27.5618C43.9402 27.396 44.0002 27.2003 44 27V24.82C44.6672 24.5841 45.2296 24.1199 45.5876 23.5095C45.9457 22.8991 46.0765 22.1817 45.9568 21.4842C45.8371 20.7867 45.4747 20.154 44.9337 19.6979C44.3926 19.2417 43.7077 18.9915 43 18.9915C42.2923 18.9915 41.6074 19.2417 41.0663 19.6979C40.5253 20.154 40.1629 20.7867 40.0432 21.4842C39.9235 22.1817 40.0543 22.8991 40.4124 23.5095C40.7704 24.1199 41.3328 24.5841 42 24.82ZM43 21C43.1978 21 43.3911 21.0586 43.5556 21.1685C43.72 21.2784 43.8482 21.4346 43.9239 21.6173C43.9996 21.8 44.0194 22.0011 43.9808 22.1951C43.9422 22.389 43.847 22.5672 43.7071 22.7071C43.5673 22.8469 43.3891 22.9422 43.1951 22.9808C43.0011 23.0193 42.8 22.9995 42.6173 22.9239C42.4346 22.8482 42.2784 22.72 42.1685 22.5555C42.0586 22.3911 42 22.1978 42 22C42 21.7348 42.1054 21.4804 42.2929 21.2929C42.4804 21.1053 42.7348 21 43 21Z" fill="#414141"/>
</g>
<defs>
<clipPath id="clip0_2_617">
<rect width="48" height="48" fill="white"/>
</clipPath>
</defs>
</svg>
